-
 
http://www.Speed. Cd       the fast  and The Hottest Private Tracker on the net 
http://www.Speed. Cd

Please Seed back to make the speed Faster!!
 ............ NFO .............
-
 
http://www.Speed. Cd[IMG]http://lookpic.com/O/i2/227/altSIIyj.jpeg[/IMG]

[IMG]http://lookpic.com/O/i2/181/VxPmDf0j.jpeg[/IMG]

[IMG]http://lookpic.com/O/i2/1823/lqOQ1Ccf.jpeg[/IMG]

Source: THC/FOX
 
http://www.imdb.com/title/tt1288558/

Format                           : AVI
Format/Info                      : Audio Video Interleave
File size                        : 975 MiB
Duration                         : 1h 24mn
Overall bit rate                 : 1 613 Kbps
Writing library                  : VirtualDub build 35390/release

Video
ID                               : 0
Format                           : MPEG-4 Visual
Format profile                   : Advanced Simple@L5
Format settings, BVOP            : Yes
Format settings, QPel            : No
Format settings, GMC             : No warppoints
Format settings, Matrix          : Default (H.263)
Muxing mode                      : Packed bitstream
Codec ID                         : XVID
Codec ID/Hint                    : XviD
Duration                         : 1h 24mn
Bit rate                         : 1 475 Kbps
Width                            : 720 pixels
Height                           : 304 pixels
Display aspect ratio             : 2.35:1
Frame rate                       : 24.000 fps
Color space                      : YUV
Chroma subsampling               : 4:2:0
Bit depth                        : 8 bits
Scan type                        : Progressive
Bits/(Pixel*Frame)               : 0.281
Stream size                      : 892 MiB (91%)
Writing library                  : XviD 1.2.1 (UTC 2008-12-04)

Audio
ID                               : 1
Format                           : MPEG Audio
Format version                   : Version 1
Format profile                   : Layer 3
Mode                             : Joint stereo
Mode extension                   : MS Stereo
Codec ID                         : 55
Codec ID/Hint                    : MP3
Duration                         : 1h 24mn
Bit rate mode                    : Constant
Bit rate                         : 128 Kbps
Channel(s)                       : 2 channels
Sampling rate                    : 48.0 KHz
Stream size                      : 77.4 MiB (8%)
Alignment                        : Split accross interleaves
Interleave, duration             : 42 ms (1.00 video frame)
Interleave, preload duration     : 500 ms
Writing library                  : LAME

Workdone:
First off, We sorry we couldnt bring you a full source, safey comes first. There is 40 minutes of our source and the rest fox. We took both sources and given it THC, when its done it will be bake. Like my friend said "that looks mint". At least for 40mins of it will be LOL. Enjoy 


THC Source:
[IMG]http://lookpic.com/O/i2/1019/RzvwX0t4.png[/IMG]
[IMG]http://lookpic.com/O/i2/1895/V8hh2HC3.png[/IMG]
[IMG]http://lookpic.com/O/i2/682/A7hI2Y4h.png[/IMG]
[IMG]http://lookpic.com/O/i2/799/pYZCinOr.png[/IMG]
[IMG]http://lookpic.com/O/i2/1350/kzE1hCql.png[/IMG]

FOX Source:
[IMG]http://lookpic.com/O/i2/1378/jp8g3NCj.png[/IMG]
[IMG]http://lookpic.com/O/i2/1342/LI6h2Tl.png[/IMG]
[IMG]http://lookpic.com/O/i2/1793/oLVORbLl.png[/IMG]